<?xml version="1.0" encoding="utf-8"?>
<!-- Generator: Adobe Illustrator 21.0.0, SVG Export Plug-In . SVG Version: 6.00 Build 0)  -->
<svg version="1.0" id="Layer_1" xmlns="http://www.w3.org/2000/svg" xmlns:xlink="http://www.w3.org/1999/xlink" x="0px" y="0px"
	 viewBox="0 0 323 80" style="enable-background:new 0 0 323 80;" xml:space="preserve">
<style type="text/css">
	.st0{fill:#FFFFFF;}
	.st1{fill:#EF6033;}
</style>
<g>
	<g>
		<g>
			<path class="st0" d="M33,14.5c-17.7,0-32,14.3-32,32s14.3,32,32,32c6.6,0,12.7-2,17.7-5.4v4.2H65V46.5C65,28.9,50.7,14.5,33,14.5
				z M33,63.8c-9.5,0-17.3-7.7-17.3-17.3S23.5,29.2,33,29.2c9.5,0,17.3,7.7,17.3,17.3S42.6,63.8,33,63.8z"/>
		</g>
	</g>
	<g>
		<g>
			<path class="st0" d="M290,14.5c-17.7,0-32,14.3-32,32s14.3,32,32,32c6.6,0,12.7-2,17.7-5.4v4.2H322V46.5
				C322,28.9,307.7,14.5,290,14.5z M290,63.8c-9.5,0-17.3-7.7-17.3-17.3s7.7-17.3,17.3-17.3c9.5,0,17.3,7.7,17.3,17.3
				S299.5,63.8,290,63.8z"/>
		</g>
	</g>
	<g>
		<path class="st0" d="M101.9,78.6c-17.6,0-32-14.4-32-32s14.4-32,32-32c10.3,0,20,5,26,13.3l-11.8,8.5c-3.3-4.6-8.6-7.3-14.2-7.3
			c-9.7,0-17.5,7.9-17.5,17.5s7.9,17.5,17.5,17.5c6.1,0,11.7-3.1,14.9-8.3l12.3,7.6C123.2,72.9,113,78.6,101.9,78.6z"/>
	</g>
	<g>
		<g>
			<g>
				<polygon class="st0" points="149.5,78.6 135.5,78.6 135.5,26.5 149.5,16.4 				"/>
			</g>
		</g>
		<g>
			<g>
				<path class="st1" d="M150.6,5l-14.1,9.4V1h12.9c1.2,0,2.2,1,2.2,2.2v0C151.5,3.9,151.2,4.6,150.6,5z"/>
			</g>
		</g>
	</g>
	<g>
		<path class="st0" d="M251.4,41.3v37.3h-15.2V41.3c0-5.8-4.7-10.5-10.5-10.5c-5.8,0-10.5,4.7-10.5,10.5v37.3h-15.4V41.3
			c0-5.8-4.7-10.5-10.5-10.5c-5.8,0-10.5,4.7-10.5,10.5v37.3h-15.2V41.3c0-14.2,11.5-25.7,25.7-25.7c7.1,0,13.6,2.9,18.3,7.6
			c4.7-4.7,11.1-7.6,18.3-7.6C239.9,15.6,251.4,27.1,251.4,41.3z"/>
	</g>
</g>
</svg>
